#tb 0: 1/25
0,          0,          0,        1,    38016, 0xc6658719
0,          1,          1,        1,    38016, 0x8a7c7423
0,          2,          2,        1,    38016, 0x97e99b66
0,          3,          3,        1,    38016, 0x73c4c4f7
0,          4,          4,        1,    38016, 0xb45bfb44
0,          5,          5,        1,    38016, 0x1bc3249c
0,          6,          6,        1,    38016, 0xd98a3121
0,          7,          7,        1,    38016, 0x6f0aefc1
0,          8,          8,        1,    38016, 0x6287f651
0,          9,          9,        1,    38016, 0x2a4a1630
0,         10,         10,        1,    38016, 0x5e7b5a35
0,         11,         11,        1,    38016, 0x58847533
0,         12,         12,        1,    38016, 0x2bad942b
0,         13,         13,        1,    38016, 0x17d75cb1
0,         14,         14,        1,    38016, 0x6d8e818d
0,         15,         15,        1,    38016, 0xfa3165db
0,         16,         16,        1,    38016, 0x6a6e249f
0,         17,         17,        1,    38016, 0x2d232ece
0,         18,         18,        1,    38016, 0xfba6616e
0,         19,         19,        1,    38016, 0xa9e7533f
0,         20,         20,        1,    38016, 0x7c4827e6
0,         21,         21,        1,    38016, 0xf570f8ca
0,         22,         22,        1,    38016, 0x0dac953f
0,         23,         23,        1,    38016, 0x74cb5f30
0,         24,         24,        1,    38016, 0x038ce61b
0,         25,         25,        1,    38016, 0x291f8ecb
0,         26,         26,        1,    38016, 0x768a6539
0,         27,         27,        1,    38016, 0x27a960e6
0,         28,         28,        1,    38016, 0x4d8ab279
0,         29,         29,        1,    38016, 0x7da78115
0,         30,         30,        1,    38016, 0x27beadcf
0,         31,         31,        1,    38016, 0x98c43180
0,         32,         32,        1,    38016, 0x566d55db
0,         33,         33,        1,    38016, 0xddc19fda
0,         34,         34,        1,    38016, 0xe353c891
0,         35,         35,        1,    38016, 0x17e2e3ab
0,         36,         36,        1,    38016, 0x8759e7c3
0,         37,         37,        1,    38016, 0x9d93bca9
0,         38,         38,        1,    38016, 0x8b77af4e
0,         39,         39,        1,    38016, 0x9b799dac
0,         40,         40,        1,    38016, 0xcb8bc504
0,         41,         41,        1,    38016, 0x58e989c8
0,         42,         42,        1,    38016, 0x4e4dbb7f
0,         43,         43,        1,    38016, 0xdfa6934e
0,         44,         44,        1,    38016, 0x14947459
0,         45,         45,        1,    38016, 0x7a31ff6a
0,         46,         46,        1,    38016, 0xc044fbc3
0,         47,         47,        1,    38016, 0xcaa723d1
0,         48,         48,        1,    38016, 0x325c1dca
0,         49,         49,        1,    38016, 0x62fb027d
0,         50,         50,        1,    38016, 0x710f3ae9
0,         51,         51,        1,    38016, 0xdbbf1804
0,         52,         52,        1,    38016, 0x1487f491
0,         53,         53,        1,    38016, 0x6a722d73
0,         54,         54,        1,    38016, 0xeb7258dd
0,         55,         55,        1,    38016, 0x685e8a68
0,         56,         56,        1,    38016, 0x1627800e
0,         57,         57,        1,    38016, 0xa88a9a31
0,         58,         58,        1,    38016, 0x4d5eaf56
0,         59,         59,        1,    38016, 0xe3a9af0a
0,         60,         60,        1,    38016, 0x3c38b8b2
0,         61,         61,        1,    38016, 0x991fc29e
